<mxfile host="65bd71144e" scale="1" border="50">
    <diagram id="Z99NbSe4vz-zhZNeXDHL" name="第 1 页">
        <mxGraphModel dx="760" dy="1283" grid="0" gridSize="50" guides="0" tooltips="1" connect="1" arrows="1" fold="1" page="1" pageScale="1" pageWidth="1169" pageHeight="827" background="#FFFFFF" math="0" shadow="0">
            <root>
                <mxCell id="0"/>
                <mxCell id="1" parent="0"/>
                <mxCell id="110" style="edgeStyle=orthogonalEdgeStyle;rounded=0;html=1;exitX=0.5;exitY=1;exitDx=0;exitDy=0;entryX=0.5;entryY=0;entryDx=0;entryDy=0;shadow=1;strokeColor=#000000;strokeWidth=1;fontSize=14;endArrow=none;endFill=0;" edge="1" parent="1" source="26" target="28">
                    <mxGeometry relative="1" as="geometry"/>
                </mxCell>
                <mxCell id="111" style="edgeStyle=orthogonalEdgeStyle;rounded=0;html=1;exitX=0.5;exitY=1;exitDx=0;exitDy=0;shadow=1;strokeColor=#000000;strokeWidth=1;fontSize=14;endArrow=none;endFill=0;" edge="1" parent="1" source="26" target="80">
                    <mxGeometry relative="1" as="geometry"/>
                </mxCell>
                <mxCell id="26" value="&lt;font style=&quot;font-size: 14px;&quot;&gt;在线考试系统&lt;/font&gt;" style="rounded=0;whiteSpace=wrap;html=1;flipV=1;labelBorderColor=none;labelBackgroundColor=#FFFFFF;fillColor=none;strokeColor=#000000;fontColor=#000000;shadow=1;" parent="1" vertex="1">
                    <mxGeometry x="590" y="-92" width="225" height="48" as="geometry"/>
                </mxCell>
                <mxCell id="101" style="edgeStyle=orthogonalEdgeStyle;html=1;exitX=0.5;exitY=1;exitDx=0;exitDy=0;strokeColor=#000000;strokeWidth=1;fontSize=14;rounded=0;endArrow=none;endFill=0;shadow=1;" edge="1" parent="1" source="28" target="31">
                    <mxGeometry relative="1" as="geometry"/>
                </mxCell>
                <mxCell id="102" style="edgeStyle=orthogonalEdgeStyle;rounded=0;html=1;exitX=0.5;exitY=1;exitDx=0;exitDy=0;entryX=0.5;entryY=1;entryDx=0;entryDy=0;strokeColor=#000000;strokeWidth=1;fontSize=14;endArrow=none;endFill=0;shadow=1;" edge="1" parent="1" source="28" target="83">
                    <mxGeometry relative="1" as="geometry"/>
                </mxCell>
                <mxCell id="103" style="edgeStyle=orthogonalEdgeStyle;rounded=0;html=1;exitX=0.5;exitY=1;exitDx=0;exitDy=0;entryX=0.5;entryY=1;entryDx=0;entryDy=0;strokeColor=#000000;strokeWidth=1;fontSize=14;endArrow=none;endFill=0;shadow=1;" edge="1" parent="1" source="28" target="84">
                    <mxGeometry relative="1" as="geometry"/>
                </mxCell>
                <mxCell id="104" style="edgeStyle=orthogonalEdgeStyle;rounded=0;html=1;exitX=0.5;exitY=1;exitDx=0;exitDy=0;shadow=0;strokeColor=#000000;strokeWidth=1;fontSize=14;endArrow=none;endFill=0;" edge="1" parent="1" source="28" target="85">
                    <mxGeometry relative="1" as="geometry"/>
                </mxCell>
                <mxCell id="28" value="&lt;font style=&quot;font-size: 14px;&quot;&gt;学生&lt;/font&gt;" style="rounded=0;whiteSpace=wrap;html=1;flipV=1;labelBorderColor=none;labelBackgroundColor=#FFFFFF;fillColor=none;strokeColor=#000000;fontColor=#000000;shadow=1;flipH=0;" parent="1" vertex="1">
                    <mxGeometry x="428" y="53" width="120" height="60" as="geometry"/>
                </mxCell>
                <mxCell id="31" value="&lt;font style=&quot;font-size: 14px;&quot;&gt;浏览我的试卷&lt;/font&gt;" style="rounded=0;whiteSpace=wrap;html=1;flipV=1;labelBorderColor=none;labelBackgroundColor=#FFFFFF;fillColor=none;strokeColor=#000000;fontColor=#000000;labelPosition=center;verticalLabelPosition=middle;align=center;verticalAlign=middle;horizontal=0;rotation=-180;shadow=1;" parent="1" vertex="1">
                    <mxGeometry x="362" y="172" width="57" height="143" as="geometry"/>
                </mxCell>
                <mxCell id="106" style="edgeStyle=orthogonalEdgeStyle;rounded=0;html=1;exitX=0.5;exitY=1;exitDx=0;exitDy=0;entryX=0.5;entryY=1;entryDx=0;entryDy=0;shadow=1;strokeColor=#000000;strokeWidth=1;fontSize=14;endArrow=none;endFill=0;" edge="1" parent="1" source="80" target="86">
                    <mxGeometry relative="1" as="geometry"/>
                </mxCell>
                <mxCell id="107" style="edgeStyle=orthogonalEdgeStyle;rounded=0;html=1;exitX=0.5;exitY=1;exitDx=0;exitDy=0;shadow=1;strokeColor=#000000;strokeWidth=1;fontSize=14;endArrow=none;endFill=0;" edge="1" parent="1" source="80" target="90">
                    <mxGeometry relative="1" as="geometry"/>
                </mxCell>
                <mxCell id="108" style="edgeStyle=orthogonalEdgeStyle;rounded=0;html=1;exitX=0.5;exitY=1;exitDx=0;exitDy=0;entryX=0.5;entryY=1;entryDx=0;entryDy=0;shadow=1;strokeColor=#000000;strokeWidth=1;fontSize=14;endArrow=none;endFill=0;" edge="1" parent="1" source="80" target="87">
                    <mxGeometry relative="1" as="geometry"/>
                </mxCell>
                <mxCell id="109" style="edgeStyle=orthogonalEdgeStyle;rounded=0;html=1;exitX=0.5;exitY=1;exitDx=0;exitDy=0;entryX=0.5;entryY=1;entryDx=0;entryDy=0;shadow=1;strokeColor=#000000;strokeWidth=1;fontSize=14;endArrow=none;endFill=0;" edge="1" parent="1" source="80" target="88">
                    <mxGeometry relative="1" as="geometry"/>
                </mxCell>
                <mxCell id="80" value="&lt;font style=&quot;font-size: 14px;&quot;&gt;教师&lt;/font&gt;" style="rounded=0;whiteSpace=wrap;html=1;flipV=1;labelBorderColor=none;labelBackgroundColor=#FFFFFF;fillColor=none;strokeColor=#000000;fontColor=#000000;flipH=0;shadow=1;" vertex="1" parent="1">
                    <mxGeometry x="851" y="53" width="120" height="60" as="geometry"/>
                </mxCell>
                <mxCell id="83" value="&lt;font style=&quot;font-size: 14px;&quot;&gt;浏览考试记录&lt;/font&gt;" style="rounded=0;whiteSpace=wrap;html=1;flipV=1;labelBorderColor=none;labelBackgroundColor=#FFFFFF;fillColor=none;strokeColor=#000000;fontColor=#000000;labelPosition=center;verticalLabelPosition=middle;align=center;verticalAlign=middle;horizontal=0;rotation=-180;shadow=1;" vertex="1" parent="1">
                    <mxGeometry x="459" y="172" width="57" height="143" as="geometry"/>
                </mxCell>
                <mxCell id="84" value="&lt;font style=&quot;font-size: 14px;&quot;&gt;收藏考试题目&lt;/font&gt;" style="rounded=0;whiteSpace=wrap;html=1;flipV=1;labelBorderColor=none;labelBackgroundColor=#FFFFFF;fillColor=none;strokeColor=#000000;fontColor=#000000;labelPosition=center;verticalLabelPosition=middle;align=center;verticalAlign=middle;horizontal=0;rotation=-180;shadow=1;" vertex="1" parent="1">
                    <mxGeometry x="555" y="172" width="57" height="143" as="geometry"/>
                </mxCell>
                <mxCell id="105" style="edgeStyle=orthogonalEdgeStyle;rounded=0;html=1;exitX=0.5;exitY=1;exitDx=0;exitDy=0;entryX=0.5;entryY=1;entryDx=0;entryDy=0;shadow=0;strokeColor=#000000;strokeWidth=1;fontSize=14;endArrow=none;endFill=0;" edge="1" parent="1" source="85" target="80">
                    <mxGeometry relative="1" as="geometry"/>
                </mxCell>
                <mxCell id="85" value="&lt;font style=&quot;font-size: 14px;&quot;&gt;修改个人信息&lt;/font&gt;" style="rounded=0;whiteSpace=wrap;html=1;flipV=1;labelBorderColor=none;labelBackgroundColor=#FFFFFF;fillColor=none;strokeColor=#000000;fontColor=#000000;labelPosition=center;verticalLabelPosition=middle;align=center;verticalAlign=middle;horizontal=0;rotation=-180;" vertex="1" parent="1">
                    <mxGeometry x="659" y="137" width="57" height="143" as="geometry"/>
                </mxCell>
                <mxCell id="86" value="&lt;span style=&quot;font-size: 14px;&quot;&gt;学生管理&lt;/span&gt;" style="rounded=0;whiteSpace=wrap;html=1;flipV=1;labelBorderColor=none;labelBackgroundColor=#FFFFFF;fillColor=none;strokeColor=#000000;fontColor=#000000;labelPosition=center;verticalLabelPosition=middle;align=center;verticalAlign=middle;horizontal=0;rotation=-180;shadow=1;" vertex="1" parent="1">
                    <mxGeometry x="748" y="172" width="57" height="143" as="geometry"/>
                </mxCell>
                <mxCell id="87" value="&lt;font style=&quot;font-size: 14px;&quot;&gt;题库管理&lt;/font&gt;" style="rounded=0;whiteSpace=wrap;html=1;flipV=1;labelBorderColor=none;labelBackgroundColor=#FFFFFF;fillColor=none;strokeColor=#000000;fontColor=#000000;labelPosition=center;verticalLabelPosition=middle;align=center;verticalAlign=middle;horizontal=0;rotation=-180;shadow=1;" vertex="1" parent="1">
                    <mxGeometry x="941" y="172" width="57" height="143" as="geometry"/>
                </mxCell>
                <mxCell id="88" value="&lt;font style=&quot;font-size: 14px;&quot;&gt;试卷管理&lt;/font&gt;" style="rounded=0;whiteSpace=wrap;html=1;flipV=1;labelBorderColor=none;labelBackgroundColor=#FFFFFF;fillColor=none;strokeColor=#000000;fontColor=#000000;labelPosition=center;verticalLabelPosition=middle;align=center;verticalAlign=middle;horizontal=0;rotation=-180;shadow=1;" vertex="1" parent="1">
                    <mxGeometry x="1038" y="172" width="57" height="143" as="geometry"/>
                </mxCell>
                <mxCell id="90" value="&lt;span style=&quot;font-size: 14px;&quot;&gt;班级管理&lt;/span&gt;" style="rounded=0;whiteSpace=wrap;html=1;flipV=1;labelBorderColor=none;labelBackgroundColor=#FFFFFF;fillColor=none;strokeColor=#000000;fontColor=#000000;labelPosition=center;verticalLabelPosition=middle;align=center;verticalAlign=middle;horizontal=0;rotation=-180;shadow=1;" vertex="1" parent="1">
                    <mxGeometry x="845" y="172" width="57" height="143" as="geometry"/>
                </mxCell>
            </root>
        </mxGraphModel>
    </diagram>
</mxfile>